<?xml version="1.0"?>
<svg width="48" height="48" xmlns="http://www.w3.org/2000/svg" xmlns:svg="http://www.w3.org/2000/svg" xmlns:xlink="http://www.w3.org/1999/xlink">
 <!-- Created with SVG-edit - http://svg-edit.googlecode.com/ -->
 <defs>
  <symbol viewBox="0 0 24 24" height="24px" width="24px" y="0px" x="0px" id="svg_8" xmlns:xlink="http://www.w3.org/1999/xlink" xmlns="http://www.w3.org/2000/svg">
   <path d="m12,2c-5.52,0 -10,4.48 -10,10c0,5.52 4.48,10 10,10c5.52,0 10,-4.48 10,-10c0,-5.52 -4.48,-10 -10,-10z" fill="#FFDBDF"/>
   <path d="m12,5c1.66,0 3,1.34 3,3s-1.34,3 -3,3s-3,-1.34 -3,-3s1.34,-3 3,-3zm0,14.200001c-2.5,0 -4.71,-1.279999 -6,-3.219999c0.03,-1.990001 4,-3.079999 6,-3.079999c1.99,0 5.971001,1.089998 6,3.079999c-1.290001,1.939999 -3.5,3.219999 -6,3.219999z" fill="#de505e"/>
   <path d="m0,0l24,0l0,24l-24,0l0,-24z" fill="none"/>
  </symbol>
 </defs>
 <g>
  <title>Layer 1</title>
  <use x="3.979359" y="-30.233809" transform="matrix(2.0114295365325616,0,0,2.0114295365325616,-8.1167750712966,60.658889641783915) " xlink:href="#svg_8" id="svg_9"/>
 </g>
</svg>