<svg width="48" height="48" xmlns="http://www.w3.org/2000/svg" xmlns:svg="http://www.w3.org/2000/svg" xmlns:xlink="http://www.w3.org/1999/xlink">
 <!-- Created with SVG-edit - http://svg-edit.googlecode.com/ -->
 <title>exp2</title>
 <defs>
  <symbol viewBox="0 0 24 24" height="24px" width="24px" y="0px" x="0px" id="svg_2" xmlns:xlink="http://www.w3.org/1999/xlink" xmlns="http://www.w3.org/2000/svg">
   <path d="m0,0l24,0l0,24l-24,0l0,-24z" fill="none"/>
   <path d="m3,19c0,1.1 0.89,2 2,2l14,0c1.1,0 2,-0.9 2,-2l0,-14c0,-1.1 -0.9,-2 -2,-2l-14,0c-1.11,0 -2,0.9 -2,2s0,12.167 0,14zm2,-14l14,0l0,14l-14,0l0,-14z" fill="#de505e" opacity="0.6"/>
  </symbol>
  <symbol viewBox="0 0 24 24" height="24px" width="24px" y="0px" x="0px" id="svg_5" xmlns:xlink="http://www.w3.org/1999/xlink" xmlns="http://www.w3.org/2000/svg">
   <path d="m0,0l24,0l0,24l-24,0l0,-24z" fill="none"/>
   <polygon points="10.09,15.59 11.5,17 16.5,12 11.5,7 10.09,8.41 12.67,11 3,11 3,13 12.67,13 " fill="#de505e"/>
  </symbol>
 </defs>
 <g>
  <title>Layer 1</title>
  <use x="2.822969" y="5.974544" transform="matrix(1.403880638046843,0,0,1.403880638046843,-0.10558636905625463,-0.10558636905625463) " xlink:href="#svg_2" id="svg_3"/>
  <use x="9.52166" y="3.108419" transform="matrix(1.428797880626007,0,0,1.428797880626007,6.192677950602283,3.4393760075366098) " xlink:href="#svg_5" id="svg_6"/>
 </g>
</svg>